<svg width="20" height="20" viewBox="0 0 20 20" fill="none" xmlns="http://www.w3.org/2000/svg">
<path d="M17.4639 1.9475C16.9679 1.49053 14.9603 0.033679 10.4843 0.0141502C10.4843 0.0141502 5.20763 -0.302216 2.63764 2.05686C1.20813 3.48637 0.704285 5.58376 0.649604 8.18109C0.594924 10.7784 0.528526 15.645 5.21934 16.9651H5.22325L5.21934 18.9805C5.21934 18.9805 5.1881 19.7968 5.72709 19.9609C6.37545 20.164 6.75821 19.5429 7.37923 18.8751C7.71903 18.5079 8.18772 17.9689 8.54314 17.5588C11.7537 17.8283 14.2182 17.2112 14.4994 17.1214C15.1478 16.9105 18.8153 16.4418 19.409 11.5752C20.0261 6.55239 19.1121 3.38091 17.4639 1.9475ZM18.0068 11.2081C17.503 15.27 14.5307 15.5278 13.9839 15.7036C13.7495 15.7778 11.5818 16.3168 8.85951 16.141C8.85951 16.141 6.82852 18.5899 6.19578 19.2266C5.98878 19.4336 5.76224 19.4141 5.76615 19.004C5.76615 18.7345 5.78177 15.6567 5.78177 15.6567C5.77787 15.6567 5.77787 15.6567 5.78177 15.6567C1.80571 14.5553 2.04005 10.4113 2.08302 8.24359C2.12598 6.07589 2.53609 4.29877 3.74687 3.10361C5.92238 1.1312 10.4023 1.42413 10.4023 1.42413C14.187 1.43975 15.9992 2.58023 16.4211 2.963C17.8154 4.15816 18.5263 7.01718 18.0068 11.2081ZM12.5778 8.0522C12.5934 8.3881 12.0896 8.41153 12.0739 8.07564C12.031 7.21637 11.6287 6.79845 10.8007 6.75159C10.4648 6.73206 10.496 6.22821 10.828 6.24774C11.9177 6.30633 12.5231 6.93125 12.5778 8.0522ZM13.3707 8.49355C13.4097 6.83751 12.3747 5.5408 10.4101 5.39629C10.0781 5.37285 10.1133 4.86901 10.4452 4.89244C12.7106 5.05649 13.9175 6.61488 13.8745 8.50527C13.8706 8.84117 13.3629 8.82554 13.3707 8.49355ZM15.2064 9.01693C15.2103 9.35282 14.7025 9.35673 14.7025 9.02083C14.6791 5.83764 12.5583 4.10348 9.98437 4.08395C9.65238 4.08005 9.65238 3.58011 9.98437 3.58011C12.8629 3.59964 15.179 5.58767 15.2064 9.01693ZM14.765 12.8485V12.8563C14.3432 13.5984 13.5542 14.4186 12.7418 14.1569L12.734 14.1452C11.9099 13.9147 9.96875 12.9149 8.74234 11.9384C8.1096 11.4385 7.53155 10.8487 7.0863 10.2824C6.684 9.77855 6.2778 9.18097 5.88332 8.46231C5.05139 6.95859 4.86782 6.2868 4.86782 6.2868C4.60614 5.4744 5.42244 4.68544 6.16844 4.26362H6.17625C6.53558 4.07614 6.87929 4.13863 7.10973 4.41594C7.10973 4.41594 7.59404 4.99399 7.80105 5.27911C7.99634 5.54471 8.25802 5.97043 8.39472 6.20868C8.63298 6.63441 8.48456 7.06795 8.25021 7.24762L7.78152 7.62257C7.54327 7.81395 7.57452 8.16938 7.57452 8.16938C7.57452 8.16938 8.26974 10.798 10.8671 11.4619C10.8671 11.4619 11.2225 11.4932 11.4139 11.2549L11.7888 10.7862C11.9685 10.5519 12.402 10.4035 12.8278 10.6417C13.4019 10.9659 14.1323 11.4697 14.6166 11.9267C14.89 12.1493 14.9525 12.4891 14.765 12.8485Z" fill="#8D97F0"/>
</svg>
